<svg xmlns="http://www.w3.org/2000/svg" viewBox="0 0 48 48" fill="currentColor">
  <!-- Bear trap motif -->
  <!-- Base plate -->
  <rect x="12" y="28" width="24" height="5" rx="2" fill="currentColor"/>
  <!-- Left jaw -->
  <path d="M12 28 Q8 20 12 14 L16 18 Q13 22 14 28 Z" fill="currentColor"/>
  <!-- Left teeth -->
  <polygon points="10,14 14,18 12,13" fill="currentColor"/>
  <polygon points="13,12 15,17 11,13" fill="currentColor"/>
  <!-- Right jaw -->
  <path d="M36 28 Q40 20 36 14 L32 18 Q35 22 34 28 Z" fill="currentColor"/>
  <!-- Right teeth -->
  <polygon points="38,14 34,18 36,13" fill="currentColor"/>
  <polygon points="35,12 33,17 37,13" fill="currentColor"/>
  <!-- Spring coil suggestion -->
  <rect x="21" y="33" width="6" height="10" rx="1" fill="currentColor" opacity="0.8"/>
  <rect x="18" y="42" width="12" height="3" rx="1.5" fill="currentColor"/>
</svg>
